<mxfile host="app.diagrams.net" agent="Mozilla/5.0 (Windows NT 10.0; Win64; x64) AppleWebKit/537.36 (KHTML, like Gecko) Chrome/131.0.0.0 Safari/537.36" version="26.0.5">
  <diagram name="Pagina-1" id="XzBS-50lBvt5I1FSgO9j">
    <mxGraphModel dx="6936" dy="3984" grid="0" gridSize="10" guides="1" tooltips="1" connect="1" arrows="1" fold="1" page="0" pageScale="1" pageWidth="827" pageHeight="1169" math="0" shadow="0">
      <root>
        <mxCell id="0" />
        <mxCell id="1" parent="0" />
        <mxCell id="zaIpkr8zUmfwl_h3QVsK-23" value="" style="rounded=0;whiteSpace=wrap;html=1;movable=0;resizable=0;rotatable=0;deletable=0;editable=0;locked=1;connectable=0;" parent="1" vertex="1">
          <mxGeometry x="-970" y="-332" width="232" height="554" as="geometry" />
        </mxCell>
        <mxCell id="zaIpkr8zUmfwl_h3QVsK-24" value="" style="rounded=0;whiteSpace=wrap;html=1;movable=0;resizable=0;rotatable=0;deletable=0;editable=0;locked=1;connectable=0;" parent="1" vertex="1">
          <mxGeometry x="-508" y="-305" width="349" height="515" as="geometry" />
        </mxCell>
        <mxCell id="zaIpkr8zUmfwl_h3QVsK-21" value="" style="rounded=0;whiteSpace=wrap;html=1;movable=1;resizable=1;rotatable=1;deletable=1;editable=1;locked=0;connectable=1;" parent="1" vertex="1">
          <mxGeometry x="-1036" y="270" width="219" height="530" as="geometry" />
        </mxCell>
        <mxCell id="6KyymLXXsNYl3Hghha6l-18" value="Creazione&lt;div&gt;account&lt;/div&gt;" style="ellipse;whiteSpace=wrap;html=1;" parent="1" vertex="1">
          <mxGeometry x="-985" y="341" width="120" height="80" as="geometry" />
        </mxCell>
        <mxCell id="zaIpkr8zUmfwl_h3QVsK-45" style="rounded=0;orthogonalLoop=1;jettySize=auto;html=1;entryX=0;entryY=0.5;entryDx=0;entryDy=0;" parent="1" target="6KyymLXXsNYl3Hghha6l-4" edge="1">
          <mxGeometry relative="1" as="geometry">
            <mxPoint x="-563" y="-161" as="sourcePoint" />
          </mxGeometry>
        </mxCell>
        <mxCell id="zaIpkr8zUmfwl_h3QVsK-47" style="rounded=0;orthogonalLoop=1;jettySize=auto;html=1;entryX=0;entryY=0.5;entryDx=0;entryDy=0;" parent="1" target="tS8IGlDE436-7qcTdryh-39" edge="1">
          <mxGeometry relative="1" as="geometry">
            <mxPoint x="-558" y="-114" as="sourcePoint" />
          </mxGeometry>
        </mxCell>
        <mxCell id="zaIpkr8zUmfwl_h3QVsK-48" style="rounded=0;orthogonalLoop=1;jettySize=auto;html=1;entryX=0;entryY=0.5;entryDx=0;entryDy=0;" parent="1" target="zaIpkr8zUmfwl_h3QVsK-13" edge="1">
          <mxGeometry relative="1" as="geometry">
            <mxPoint x="-565" y="-75" as="sourcePoint" />
          </mxGeometry>
        </mxCell>
        <mxCell id="XpmrYAvNGTaTp0vdqRnh-1" style="edgeStyle=none;curved=1;rounded=0;orthogonalLoop=1;jettySize=auto;html=1;fontSize=12;startSize=8;endSize=8;" edge="1" parent="1">
          <mxGeometry relative="1" as="geometry">
            <mxPoint x="-419" y="-127" as="targetPoint" />
            <mxPoint x="-563" y="-142" as="sourcePoint" />
          </mxGeometry>
        </mxCell>
        <mxCell id="XpmrYAvNGTaTp0vdqRnh-3" style="edgeStyle=none;curved=1;rounded=0;orthogonalLoop=1;jettySize=auto;html=1;fontSize=12;startSize=8;endSize=8;" edge="1" parent="1">
          <mxGeometry relative="1" as="geometry">
            <mxPoint x="-409.1724137931035" y="-51.75862068965512" as="targetPoint" />
            <mxPoint x="-554" y="-127" as="sourcePoint" />
          </mxGeometry>
        </mxCell>
        <mxCell id="XpmrYAvNGTaTp0vdqRnh-4" style="edgeStyle=none;curved=1;rounded=0;orthogonalLoop=1;jettySize=auto;html=1;fontSize=12;startSize=8;endSize=8;" edge="1" parent="1">
          <mxGeometry relative="1" as="geometry">
            <mxPoint x="-413.8275862068965" y="77.20689655172418" as="targetPoint" />
            <mxPoint x="-557" y="-86" as="sourcePoint" />
          </mxGeometry>
        </mxCell>
        <mxCell id="6KyymLXXsNYl3Hghha6l-11" value="Utente 1" style="shape=umlActor;verticalLabelPosition=bottom;verticalAlign=top;html=1;outlineConnect=0;" parent="1" vertex="1">
          <mxGeometry x="-600" y="-157" width="30" height="60" as="geometry" />
        </mxCell>
        <mxCell id="6KyymLXXsNYl3Hghha6l-31" value="Eliminazione&lt;div&gt;account&lt;/div&gt;" style="ellipse;whiteSpace=wrap;html=1;" parent="1" vertex="1">
          <mxGeometry x="-985" y="543" width="120" height="80" as="geometry" />
        </mxCell>
        <mxCell id="6KyymLXXsNYl3Hghha6l-32" value="Cambio&lt;div&gt;Password&lt;/div&gt;" style="ellipse;whiteSpace=wrap;html=1;" parent="1" vertex="1">
          <mxGeometry x="-980" y="647" width="120" height="80" as="geometry" />
        </mxCell>
        <mxCell id="6KyymLXXsNYl3Hghha6l-59" value="Gestione Vault" style="text;html=1;align=center;verticalAlign=middle;whiteSpace=wrap;rounded=0;fontSize=16;" parent="1" vertex="1">
          <mxGeometry x="-431" y="-289" width="154" height="30" as="geometry" />
        </mxCell>
        <mxCell id="zaIpkr8zUmfwl_h3QVsK-46" style="rounded=0;orthogonalLoop=1;jettySize=auto;html=1;exitX=1;exitY=0.5;exitDx=0;exitDy=0;" parent="1" source="6KyymLXXsNYl3Hghha6l-4" edge="1">
          <mxGeometry relative="1" as="geometry">
            <mxPoint x="-107" y="-92" as="targetPoint" />
          </mxGeometry>
        </mxCell>
        <mxCell id="6KyymLXXsNYl3Hghha6l-4" value="Aggiunta Metodo&lt;div&gt;di pagamento&lt;/div&gt;" style="ellipse;whiteSpace=wrap;html=1;" parent="1" vertex="1">
          <mxGeometry x="-412" y="-241" width="120" height="57" as="geometry" />
        </mxCell>
        <mxCell id="Ago6emkh6B27smQ5KSHw-34" style="edgeStyle=none;curved=1;rounded=0;orthogonalLoop=1;jettySize=auto;html=1;fontSize=12;startSize=8;endSize=8;" parent="1" edge="1">
          <mxGeometry relative="1" as="geometry">
            <mxPoint x="-907.4117647058824" y="-239.70588235294122" as="targetPoint" />
            <mxPoint x="-1049" y="-133" as="sourcePoint" />
            <Array as="points">
              <mxPoint x="-986" y="-194" />
            </Array>
          </mxGeometry>
        </mxCell>
        <mxCell id="Ago6emkh6B27smQ5KSHw-38" style="edgeStyle=none;curved=1;rounded=0;orthogonalLoop=1;jettySize=auto;html=1;fontSize=12;startSize=8;endSize=8;" parent="1" edge="1">
          <mxGeometry relative="1" as="geometry">
            <mxPoint x="-899.1764705882354" y="145" as="targetPoint" />
            <mxPoint x="-1076" y="-29" as="sourcePoint" />
            <Array as="points">
              <mxPoint x="-1003" y="73" />
            </Array>
          </mxGeometry>
        </mxCell>
        <mxCell id="Ago6emkh6B27smQ5KSHw-39" style="edgeStyle=none;curved=1;rounded=0;orthogonalLoop=1;jettySize=auto;html=1;fontSize=12;startSize=8;endSize=8;" parent="1" edge="1">
          <mxGeometry relative="1" as="geometry">
            <mxPoint x="-909.7647058823529" y="-91.47058823529414" as="targetPoint" />
            <mxPoint x="-1026" y="-91" as="sourcePoint" />
          </mxGeometry>
        </mxCell>
        <mxCell id="Ago6emkh6B27smQ5KSHw-47" style="edgeStyle=none;curved=1;rounded=0;orthogonalLoop=1;jettySize=auto;html=1;fontSize=12;startSize=8;endSize=8;" parent="1" edge="1">
          <mxGeometry relative="1" as="geometry">
            <mxPoint x="-907.4117647058824" y="72.05882352941171" as="targetPoint" />
            <Array as="points">
              <mxPoint x="-1017" y="34" />
            </Array>
            <mxPoint x="-1052" y="-31" as="sourcePoint" />
          </mxGeometry>
        </mxCell>
        <mxCell id="6KyymLXXsNYl3Hghha6l-65" value="Utente 1" style="shape=umlActor;verticalLabelPosition=bottom;verticalAlign=top;html=1;outlineConnect=0;" parent="1" vertex="1">
          <mxGeometry x="-1083" y="-114" width="30" height="60" as="geometry" />
        </mxCell>
        <mxCell id="6KyymLXXsNYl3Hghha6l-74" value="Gestione Gruppo" style="text;html=1;align=center;verticalAlign=middle;whiteSpace=wrap;rounded=0;fontSize=16;" parent="1" vertex="1">
          <mxGeometry x="-944" y="-325" width="186" height="30" as="geometry" />
        </mxCell>
        <mxCell id="6KyymLXXsNYl3Hghha6l-90" value="Login/ Logout" style="ellipse;whiteSpace=wrap;html=1;" parent="1" vertex="1">
          <mxGeometry x="-985" y="439" width="120" height="80" as="geometry" />
        </mxCell>
        <mxCell id="6KyymLXXsNYl3Hghha6l-100" value="Gestione Account Utente" style="text;html=1;align=center;verticalAlign=middle;whiteSpace=wrap;rounded=0;fontSize=16;" parent="1" vertex="1">
          <mxGeometry x="-1026" y="281" width="222" height="30" as="geometry" />
        </mxCell>
        <mxCell id="Ago6emkh6B27smQ5KSHw-37" style="edgeStyle=none;curved=1;rounded=0;orthogonalLoop=1;jettySize=auto;html=1;fontSize=12;startSize=8;endSize=8;" parent="1" edge="1">
          <mxGeometry relative="1" as="geometry">
            <mxPoint x="-787.4117647058824" y="160.29411764705878" as="targetPoint" />
            <mxPoint x="-692" y="-30" as="sourcePoint" />
          </mxGeometry>
        </mxCell>
        <mxCell id="Ago6emkh6B27smQ5KSHw-41" style="edgeStyle=none;curved=1;rounded=0;orthogonalLoop=1;jettySize=auto;html=1;fontSize=12;startSize=8;endSize=8;" parent="1" edge="1">
          <mxGeometry relative="1" as="geometry">
            <mxPoint x="-792.1176470588234" y="-5.588235294117567" as="targetPoint" />
            <mxPoint x="-704" y="-57" as="sourcePoint" />
          </mxGeometry>
        </mxCell>
        <mxCell id="Ago6emkh6B27smQ5KSHw-44" style="edgeStyle=none;curved=1;rounded=0;orthogonalLoop=1;jettySize=auto;html=1;fontSize=12;startSize=8;endSize=8;" parent="1" edge="1">
          <mxGeometry relative="1" as="geometry">
            <mxPoint x="-783.8823529411764" y="-164.4117647058822" as="targetPoint" />
            <mxPoint x="-691" y="-121" as="sourcePoint" />
          </mxGeometry>
        </mxCell>
        <mxCell id="6KyymLXXsNYl3Hghha6l-101" value="Amministratore" style="shape=umlActor;verticalLabelPosition=bottom;verticalAlign=top;html=1;outlineConnect=0;" parent="1" vertex="1">
          <mxGeometry x="-692" y="-117" width="30" height="60" as="geometry" />
        </mxCell>
        <mxCell id="tS8IGlDE436-7qcTdryh-3" value="Abbandono&lt;div&gt;Gruppo&lt;/div&gt;" style="ellipse;whiteSpace=wrap;html=1;" parent="1" vertex="1">
          <mxGeometry x="-896" y="51" width="105" height="69" as="geometry" />
        </mxCell>
        <mxCell id="tS8IGlDE436-7qcTdryh-4" value="Rimozione/Aggiunta&lt;div&gt;Partecipanti&lt;/div&gt;" style="ellipse;whiteSpace=wrap;html=1;" parent="1" vertex="1">
          <mxGeometry x="-896" y="135" width="104" height="69" as="geometry" />
        </mxCell>
        <mxCell id="Ago6emkh6B27smQ5KSHw-42" style="edgeStyle=none;curved=1;rounded=0;orthogonalLoop=1;jettySize=auto;html=1;fontSize=12;startSize=8;endSize=8;" parent="1" edge="1">
          <mxGeometry relative="1" as="geometry">
            <mxPoint x="-1029" y="-67" as="targetPoint" />
            <mxPoint x="-901" y="-9" as="sourcePoint" />
          </mxGeometry>
        </mxCell>
        <mxCell id="tS8IGlDE436-7qcTdryh-5" value="Rimuovi utente" style="ellipse;whiteSpace=wrap;html=1;" parent="1" vertex="1">
          <mxGeometry x="-892.5" y="-22" width="94" height="60" as="geometry" />
        </mxCell>
        <mxCell id="tS8IGlDE436-7qcTdryh-37" value="Rimozione Metodo di pagamento" style="ellipse;whiteSpace=wrap;html=1;" parent="1" vertex="1">
          <mxGeometry x="-412" y="-159" width="128" height="64" as="geometry" />
        </mxCell>
        <mxCell id="tS8IGlDE436-7qcTdryh-39" value="Deposito su Virtual Vault" style="ellipse;whiteSpace=wrap;html=1;" parent="1" vertex="1">
          <mxGeometry x="-410" y="-2" width="112" height="62" as="geometry" />
        </mxCell>
        <mxCell id="zaIpkr8zUmfwl_h3QVsK-7" value="Creazione&lt;div&gt;gruppo&lt;/div&gt;" style="ellipse;whiteSpace=wrap;html=1;" parent="1" vertex="1">
          <mxGeometry x="-903.5" y="-275" width="105" height="69" as="geometry" />
        </mxCell>
        <mxCell id="Ago6emkh6B27smQ5KSHw-45" style="edgeStyle=none;curved=1;rounded=0;orthogonalLoop=1;jettySize=auto;html=1;fontSize=12;startSize=8;endSize=8;" parent="1" edge="1">
          <mxGeometry relative="1" as="geometry">
            <mxPoint x="-1030" y="-114" as="targetPoint" />
            <mxPoint x="-922" y="-170" as="sourcePoint" />
          </mxGeometry>
        </mxCell>
        <mxCell id="zaIpkr8zUmfwl_h3QVsK-9" value="Eliminazione&lt;div&gt;Gruppo&lt;/div&gt;" style="ellipse;whiteSpace=wrap;html=1;" parent="1" vertex="1">
          <mxGeometry x="-903.5" y="-190" width="105" height="69" as="geometry" />
        </mxCell>
        <mxCell id="Ago6emkh6B27smQ5KSHw-40" style="edgeStyle=none;curved=1;rounded=0;orthogonalLoop=1;jettySize=auto;html=1;fontSize=12;startSize=8;endSize=8;" parent="1" edge="1">
          <mxGeometry relative="1" as="geometry">
            <mxPoint x="-698" y="-83.23529411764707" as="targetPoint" />
            <mxPoint x="-786" y="-74" as="sourcePoint" />
          </mxGeometry>
        </mxCell>
        <mxCell id="zaIpkr8zUmfwl_h3QVsK-10" value="Approvazione&lt;div&gt;Invito&lt;/div&gt;" style="ellipse;whiteSpace=wrap;html=1;" parent="1" vertex="1">
          <mxGeometry x="-902.5" y="-108.5" width="104" height="69" as="geometry" />
        </mxCell>
        <mxCell id="XpmrYAvNGTaTp0vdqRnh-5" style="edgeStyle=none;curved=1;rounded=0;orthogonalLoop=1;jettySize=auto;html=1;exitX=1;exitY=0.5;exitDx=0;exitDy=0;fontSize=12;startSize=8;endSize=8;" edge="1" parent="1" source="zaIpkr8zUmfwl_h3QVsK-12">
          <mxGeometry relative="1" as="geometry">
            <mxPoint x="-104" y="-41" as="targetPoint" />
          </mxGeometry>
        </mxCell>
        <mxCell id="zaIpkr8zUmfwl_h3QVsK-12" value="Esecuzione pagamento Fisico/Online" style="ellipse;whiteSpace=wrap;html=1;" parent="1" vertex="1">
          <mxGeometry x="-410" y="65" width="111" height="64" as="geometry" />
        </mxCell>
        <mxCell id="zaIpkr8zUmfwl_h3QVsK-13" value="Prelievo dal Vault al metodo di pagamento" style="ellipse;whiteSpace=wrap;html=1;" parent="1" vertex="1">
          <mxGeometry x="-407" y="138" width="114" height="62" as="geometry" />
        </mxCell>
        <mxCell id="zaIpkr8zUmfwl_h3QVsK-15" value="Storico Movimenti Vault" style="ellipse;whiteSpace=wrap;html=1;" parent="1" vertex="1">
          <mxGeometry x="-397" y="-77.5" width="110" height="60" as="geometry" />
        </mxCell>
        <mxCell id="zaIpkr8zUmfwl_h3QVsK-18" value="Banca" style="shape=umlActor;verticalLabelPosition=bottom;verticalAlign=top;html=1;outlineConnect=0;" parent="1" vertex="1">
          <mxGeometry x="-88" y="-104" width="30" height="60" as="geometry" />
        </mxCell>
        <mxCell id="Ago6emkh6B27smQ5KSHw-75" style="edgeStyle=none;curved=1;rounded=0;orthogonalLoop=1;jettySize=auto;html=1;fontSize=12;startSize=8;endSize=8;" parent="1" edge="1">
          <mxGeometry relative="1" as="geometry">
            <mxPoint x="-1098" y="558" as="sourcePoint" />
            <mxPoint x="-994" y="387" as="targetPoint" />
            <Array as="points">
              <mxPoint x="-1050" y="428" />
            </Array>
          </mxGeometry>
        </mxCell>
        <mxCell id="Ago6emkh6B27smQ5KSHw-77" style="edgeStyle=none;curved=1;rounded=0;orthogonalLoop=1;jettySize=auto;html=1;fontSize=12;startSize=8;endSize=8;" parent="1" edge="1">
          <mxGeometry relative="1" as="geometry">
            <mxPoint x="-987" y="579.7142857142858" as="targetPoint" />
            <mxPoint x="-1068" y="600" as="sourcePoint" />
            <Array as="points">
              <mxPoint x="-1030" y="580" />
            </Array>
          </mxGeometry>
        </mxCell>
        <mxCell id="Ago6emkh6B27smQ5KSHw-78" style="edgeStyle=none;curved=1;rounded=0;orthogonalLoop=1;jettySize=auto;html=1;fontSize=12;startSize=8;endSize=8;" parent="1" edge="1">
          <mxGeometry relative="1" as="geometry">
            <mxPoint x="-991.2857142857142" y="688.2857142857147" as="targetPoint" />
            <mxPoint x="-1073" y="664" as="sourcePoint" />
            <Array as="points">
              <mxPoint x="-1037" y="681" />
            </Array>
          </mxGeometry>
        </mxCell>
        <mxCell id="Ago6emkh6B27smQ5KSHw-79" style="edgeStyle=none;curved=1;rounded=0;orthogonalLoop=1;jettySize=auto;html=1;fontSize=12;startSize=8;endSize=8;" parent="1" edge="1">
          <mxGeometry relative="1" as="geometry">
            <mxPoint x="-982.7142857142856" y="495.42857142857156" as="targetPoint" />
            <mxPoint x="-1076" y="568" as="sourcePoint" />
            <Array as="points">
              <mxPoint x="-1033" y="525" />
            </Array>
          </mxGeometry>
        </mxCell>
        <mxCell id="zaIpkr8zUmfwl_h3QVsK-22" value="Utente 1" style="shape=umlActor;verticalLabelPosition=bottom;verticalAlign=top;html=1;outlineConnect=0;" parent="1" vertex="1">
          <mxGeometry x="-1113" y="579.5" width="30" height="60" as="geometry" />
        </mxCell>
        <mxCell id="zaIpkr8zUmfwl_h3QVsK-26" value="" style="rounded=0;whiteSpace=wrap;html=1;movable=0;resizable=0;rotatable=0;deletable=0;editable=0;locked=1;connectable=0;" parent="1" vertex="1">
          <mxGeometry x="-729" y="1088" width="202" height="333.5" as="geometry" />
        </mxCell>
        <mxCell id="Ago6emkh6B27smQ5KSHw-60" style="edgeStyle=none;curved=1;rounded=0;orthogonalLoop=1;jettySize=auto;html=1;entryX=0;entryY=0.5;entryDx=0;entryDy=0;fontSize=12;startSize=8;endSize=8;" parent="1" target="zaIpkr8zUmfwl_h3QVsK-29" edge="1">
          <mxGeometry relative="1" as="geometry">
            <mxPoint x="-786" y="1200" as="sourcePoint" />
            <Array as="points">
              <mxPoint x="-743" y="1191" />
            </Array>
          </mxGeometry>
        </mxCell>
        <mxCell id="Ago6emkh6B27smQ5KSHw-62" style="edgeStyle=none;curved=1;rounded=0;orthogonalLoop=1;jettySize=auto;html=1;fontSize=12;startSize=8;endSize=8;" parent="1" edge="1">
          <mxGeometry relative="1" as="geometry">
            <mxPoint x="-694.4705882352941" y="1281.4705882352941" as="targetPoint" />
            <mxPoint x="-773" y="1269" as="sourcePoint" />
            <Array as="points">
              <mxPoint x="-737" y="1286" />
            </Array>
          </mxGeometry>
        </mxCell>
        <mxCell id="Ago6emkh6B27smQ5KSHw-64" style="edgeStyle=none;curved=1;rounded=0;orthogonalLoop=1;jettySize=auto;html=1;fontSize=12;startSize=8;endSize=8;" parent="1" edge="1">
          <mxGeometry relative="1" as="geometry">
            <mxPoint x="-685.0588235294117" y="1366.1764705882356" as="targetPoint" />
            <mxPoint x="-794" y="1290" as="sourcePoint" />
            <Array as="points">
              <mxPoint x="-742" y="1343" />
            </Array>
          </mxGeometry>
        </mxCell>
        <mxCell id="zaIpkr8zUmfwl_h3QVsK-27" value="Utente 1" style="shape=umlActor;verticalLabelPosition=bottom;verticalAlign=top;html=1;outlineConnect=0;" parent="1" vertex="1">
          <mxGeometry x="-817" y="1204" width="30" height="60" as="geometry" />
        </mxCell>
        <mxCell id="zaIpkr8zUmfwl_h3QVsK-28" value="SendMe" style="text;html=1;align=center;verticalAlign=middle;whiteSpace=wrap;rounded=0;fontSize=16;" parent="1" vertex="1">
          <mxGeometry x="-711" y="1101" width="154" height="30" as="geometry" />
        </mxCell>
        <mxCell id="Ago6emkh6B27smQ5KSHw-61" style="edgeStyle=none;curved=1;rounded=0;orthogonalLoop=1;jettySize=auto;html=1;fontSize=12;startSize=8;endSize=8;" parent="1" edge="1">
          <mxGeometry relative="1" as="geometry">
            <mxPoint x="-470.9411764705883" y="1180.294117647059" as="targetPoint" />
            <mxPoint x="-558" y="1191" as="sourcePoint" />
            <Array as="points">
              <mxPoint x="-518" y="1180" />
            </Array>
          </mxGeometry>
        </mxCell>
        <mxCell id="zaIpkr8zUmfwl_h3QVsK-29" value="Invio e ricezione di denaro" style="ellipse;whiteSpace=wrap;html=1;" parent="1" vertex="1">
          <mxGeometry x="-685" y="1172" width="120" height="57" as="geometry" />
        </mxCell>
        <mxCell id="Ago6emkh6B27smQ5KSHw-63" style="edgeStyle=none;curved=1;rounded=0;orthogonalLoop=1;jettySize=auto;html=1;fontSize=12;startSize=8;endSize=8;" parent="1" edge="1">
          <mxGeometry relative="1" as="geometry">
            <mxPoint x="-470.9411764705883" y="1242.6470588235293" as="targetPoint" />
            <mxPoint x="-551" y="1284" as="sourcePoint" />
            <Array as="points">
              <mxPoint x="-509" y="1277" />
            </Array>
          </mxGeometry>
        </mxCell>
        <mxCell id="zaIpkr8zUmfwl_h3QVsK-30" value="Storico Transazioni tra due utenti" style="ellipse;whiteSpace=wrap;html=1;" parent="1" vertex="1">
          <mxGeometry x="-687" y="1252" width="128" height="64" as="geometry" />
        </mxCell>
        <mxCell id="Ago6emkh6B27smQ5KSHw-65" style="edgeStyle=none;curved=1;rounded=0;orthogonalLoop=1;jettySize=auto;html=1;fontSize=12;startSize=8;endSize=8;" parent="1" edge="1">
          <mxGeometry relative="1" as="geometry">
            <mxPoint x="-449.7647058823529" y="1256.7647058823532" as="targetPoint" />
            <mxPoint x="-557" y="1378" as="sourcePoint" />
            <Array as="points">
              <mxPoint x="-489" y="1331" />
            </Array>
          </mxGeometry>
        </mxCell>
        <mxCell id="zaIpkr8zUmfwl_h3QVsK-35" value="Generazione Notifica" style="ellipse;whiteSpace=wrap;html=1;" parent="1" vertex="1">
          <mxGeometry x="-671" y="1348" width="110" height="60" as="geometry" />
        </mxCell>
        <mxCell id="zaIpkr8zUmfwl_h3QVsK-36" value="Utente 2" style="shape=umlActor;verticalLabelPosition=bottom;verticalAlign=top;html=1;outlineConnect=0;" parent="1" vertex="1">
          <mxGeometry x="-468" y="1157" width="30" height="60" as="geometry" />
        </mxCell>
        <mxCell id="zaIpkr8zUmfwl_h3QVsK-49" style="rounded=0;orthogonalLoop=1;jettySize=auto;html=1;exitX=1;exitY=0.5;exitDx=0;exitDy=0;" parent="1" source="zaIpkr8zUmfwl_h3QVsK-13" edge="1">
          <mxGeometry relative="1" as="geometry">
            <mxPoint x="-88" y="-17" as="targetPoint" />
          </mxGeometry>
        </mxCell>
        <mxCell id="zaIpkr8zUmfwl_h3QVsK-50" style="rounded=0;orthogonalLoop=1;jettySize=auto;html=1;exitX=1;exitY=0.5;exitDx=0;exitDy=0;" parent="1" source="tS8IGlDE436-7qcTdryh-39" edge="1">
          <mxGeometry relative="1" as="geometry">
            <mxPoint x="-99" y="-65" as="targetPoint" />
          </mxGeometry>
        </mxCell>
        <mxCell id="zaIpkr8zUmfwl_h3QVsK-51" value="" style="rounded=0;whiteSpace=wrap;html=1;movable=0;resizable=0;rotatable=0;deletable=0;editable=0;locked=1;connectable=0;" parent="1" vertex="1">
          <mxGeometry x="-269" y="1074" width="202" height="410" as="geometry" />
        </mxCell>
        <mxCell id="Ago6emkh6B27smQ5KSHw-66" style="edgeStyle=none;curved=1;rounded=0;orthogonalLoop=1;jettySize=auto;html=1;fontSize=12;startSize=8;endSize=8;" parent="1" edge="1">
          <mxGeometry relative="1" as="geometry">
            <mxPoint x="-329" y="1157" as="sourcePoint" />
            <mxPoint x="-238" y="1150" as="targetPoint" />
            <Array as="points">
              <mxPoint x="-285" y="1139" />
            </Array>
          </mxGeometry>
        </mxCell>
        <mxCell id="Ago6emkh6B27smQ5KSHw-67" style="edgeStyle=none;curved=1;rounded=0;orthogonalLoop=1;jettySize=auto;html=1;fontSize=12;startSize=8;endSize=8;" parent="1" edge="1">
          <mxGeometry relative="1" as="geometry">
            <mxPoint x="-229.76470588235293" y="1250.8823529411766" as="targetPoint" />
            <mxPoint x="-324" y="1230" as="sourcePoint" />
            <Array as="points">
              <mxPoint x="-276" y="1251" />
            </Array>
          </mxGeometry>
        </mxCell>
        <mxCell id="Ago6emkh6B27smQ5KSHw-69" style="edgeStyle=none;curved=1;rounded=0;orthogonalLoop=1;jettySize=auto;html=1;fontSize=12;startSize=8;endSize=8;" parent="1" edge="1">
          <mxGeometry relative="1" as="geometry">
            <mxPoint x="-229.76470588235293" y="1326.1764705882356" as="targetPoint" />
            <mxPoint x="-347" y="1245" as="sourcePoint" />
            <Array as="points">
              <mxPoint x="-291" y="1300" />
            </Array>
          </mxGeometry>
        </mxCell>
        <mxCell id="Ago6emkh6B27smQ5KSHw-71" style="edgeStyle=none;curved=1;rounded=0;orthogonalLoop=1;jettySize=auto;html=1;fontSize=12;startSize=8;endSize=8;" parent="1" edge="1">
          <mxGeometry relative="1" as="geometry">
            <mxPoint x="-230.9411764705883" y="1408.5294117647059" as="targetPoint" />
            <mxPoint x="-353" y="1247" as="sourcePoint" />
            <Array as="points">
              <mxPoint x="-300" y="1340" />
            </Array>
          </mxGeometry>
        </mxCell>
        <mxCell id="zaIpkr8zUmfwl_h3QVsK-53" value="Utente 1" style="shape=umlActor;verticalLabelPosition=bottom;verticalAlign=top;html=1;outlineConnect=0;" parent="1" vertex="1">
          <mxGeometry x="-362" y="1160.5" width="30" height="60" as="geometry" />
        </mxCell>
        <mxCell id="zaIpkr8zUmfwl_h3QVsK-54" value="Gestione Amicizie" style="text;html=1;align=center;verticalAlign=middle;whiteSpace=wrap;rounded=0;fontSize=16;" parent="1" vertex="1">
          <mxGeometry x="-241" y="1081" width="154" height="30" as="geometry" />
        </mxCell>
        <mxCell id="zaIpkr8zUmfwl_h3QVsK-55" value="Richiesta lista&lt;div&gt;amici&lt;/div&gt;" style="ellipse;whiteSpace=wrap;html=1;" parent="1" vertex="1">
          <mxGeometry x="-230" y="1128.5" width="120" height="57" as="geometry" />
        </mxCell>
        <mxCell id="Ago6emkh6B27smQ5KSHw-68" style="edgeStyle=none;curved=1;rounded=0;orthogonalLoop=1;jettySize=auto;html=1;fontSize=12;startSize=8;endSize=8;" parent="1" edge="1">
          <mxGeometry relative="1" as="geometry">
            <mxPoint x="-5.058823529411711" y="1203.8235294117649" as="targetPoint" />
            <mxPoint x="-94" y="1240" as="sourcePoint" />
            <Array as="points">
              <mxPoint x="-36" y="1229" />
            </Array>
          </mxGeometry>
        </mxCell>
        <mxCell id="zaIpkr8zUmfwl_h3QVsK-56" value="Approvazione&lt;div&gt;richiesta amicizia&lt;/div&gt;" style="ellipse;whiteSpace=wrap;html=1;" parent="1" vertex="1">
          <mxGeometry x="-232" y="1208.5" width="128" height="64" as="geometry" />
        </mxCell>
        <mxCell id="Ago6emkh6B27smQ5KSHw-70" style="edgeStyle=none;curved=1;rounded=0;orthogonalLoop=1;jettySize=auto;html=1;fontSize=12;startSize=8;endSize=8;" parent="1" edge="1">
          <mxGeometry relative="1" as="geometry">
            <mxPoint x="12.588235294117567" y="1209.7058823529414" as="targetPoint" />
            <mxPoint x="-102" y="1330" as="sourcePoint" />
            <Array as="points">
              <mxPoint x="-36" y="1277" />
            </Array>
          </mxGeometry>
        </mxCell>
        <mxCell id="zaIpkr8zUmfwl_h3QVsK-57" value="Rimozione&lt;div&gt;amicizia&lt;/div&gt;" style="ellipse;whiteSpace=wrap;html=1;" parent="1" vertex="1">
          <mxGeometry x="-223" y="1304.5" width="110" height="60" as="geometry" />
        </mxCell>
        <mxCell id="zaIpkr8zUmfwl_h3QVsK-58" value="Utente 2" style="shape=umlActor;verticalLabelPosition=bottom;verticalAlign=top;html=1;outlineConnect=0;" parent="1" vertex="1">
          <mxGeometry x="15.25" y="1131" width="30" height="60" as="geometry" />
        </mxCell>
        <mxCell id="Ago6emkh6B27smQ5KSHw-72" style="edgeStyle=none;curved=1;rounded=0;orthogonalLoop=1;jettySize=auto;html=1;fontSize=12;startSize=8;endSize=8;" parent="1" edge="1">
          <mxGeometry relative="1" as="geometry">
            <mxPoint x="20.823529411764866" y="1232.0588235294117" as="targetPoint" />
            <mxPoint x="-99" y="1417" as="sourcePoint" />
            <Array as="points">
              <mxPoint x="-19" y="1324" />
            </Array>
          </mxGeometry>
        </mxCell>
        <mxCell id="zaIpkr8zUmfwl_h3QVsK-69" value="Ricerca utenti per invio richiesta amicizia" style="ellipse;whiteSpace=wrap;html=1;" parent="1" vertex="1">
          <mxGeometry x="-219" y="1390.5" width="110" height="60" as="geometry" />
        </mxCell>
        <mxCell id="zaIpkr8zUmfwl_h3QVsK-88" value="" style="rounded=0;whiteSpace=wrap;html=1;movable=0;resizable=0;rotatable=0;deletable=0;editable=0;locked=1;connectable=0;" parent="1" vertex="1">
          <mxGeometry x="71" y="-334" width="218" height="457" as="geometry" />
        </mxCell>
        <mxCell id="Ago6emkh6B27smQ5KSHw-49" style="edgeStyle=none;curved=1;rounded=0;orthogonalLoop=1;jettySize=auto;html=1;fontSize=12;startSize=8;endSize=8;" parent="1" edge="1">
          <mxGeometry relative="1" as="geometry">
            <mxPoint x="11" y="-237" as="sourcePoint" />
            <mxPoint x="118" y="-253" as="targetPoint" />
            <Array as="points">
              <mxPoint x="65" y="-253" />
            </Array>
          </mxGeometry>
        </mxCell>
        <mxCell id="Ago6emkh6B27smQ5KSHw-53" style="edgeStyle=none;curved=1;rounded=0;orthogonalLoop=1;jettySize=auto;html=1;fontSize=12;startSize=8;endSize=8;" parent="1" edge="1">
          <mxGeometry relative="1" as="geometry">
            <mxPoint x="124.35294117647072" y="-159.70588235294122" as="targetPoint" />
            <mxPoint x="13" y="-200" as="sourcePoint" />
          </mxGeometry>
        </mxCell>
        <mxCell id="Ago6emkh6B27smQ5KSHw-54" style="edgeStyle=none;curved=1;rounded=0;orthogonalLoop=1;jettySize=auto;html=1;fontSize=12;startSize=8;endSize=8;" parent="1" edge="1">
          <mxGeometry relative="1" as="geometry">
            <mxPoint x="129.0588235294117" y="-78.52941176470586" as="targetPoint" />
            <mxPoint x="16" y="-170" as="sourcePoint" />
          </mxGeometry>
        </mxCell>
        <mxCell id="zaIpkr8zUmfwl_h3QVsK-89" value="Utente 1" style="shape=umlActor;verticalLabelPosition=bottom;verticalAlign=top;html=1;outlineConnect=0;" parent="1" vertex="1">
          <mxGeometry x="-28.5" y="-241" width="30" height="60" as="geometry" />
        </mxCell>
        <mxCell id="zaIpkr8zUmfwl_h3QVsK-91" value="Gestione Spese di gruppo" style="text;html=1;align=center;verticalAlign=middle;whiteSpace=wrap;rounded=0;fontSize=16;" parent="1" vertex="1">
          <mxGeometry x="93.75" y="-325" width="186" height="30" as="geometry" />
        </mxCell>
        <mxCell id="XpmrYAvNGTaTp0vdqRnh-11" style="edgeStyle=none;curved=1;rounded=0;orthogonalLoop=1;jettySize=auto;html=1;fontSize=12;startSize=8;endSize=8;" edge="1" parent="1">
          <mxGeometry relative="1" as="geometry">
            <mxPoint x="35" y="-23" as="sourcePoint" />
            <mxPoint x="94" y="21" as="targetPoint" />
          </mxGeometry>
        </mxCell>
        <mxCell id="zaIpkr8zUmfwl_h3QVsK-92" value="Amministratore" style="shape=umlActor;verticalLabelPosition=bottom;verticalAlign=top;html=1;outlineConnect=0;" parent="1" vertex="1">
          <mxGeometry x="-13" y="-75" width="30" height="60" as="geometry" />
        </mxCell>
        <mxCell id="zaIpkr8zUmfwl_h3QVsK-95" value="Eliminazione Spesa condivisa" style="ellipse;whiteSpace=wrap;html=1;" parent="1" vertex="1">
          <mxGeometry x="134.75" y="-97" width="94" height="60" as="geometry" />
        </mxCell>
        <mxCell id="zaIpkr8zUmfwl_h3QVsK-96" value="Raccolta di denaro" style="ellipse;whiteSpace=wrap;html=1;" parent="1" vertex="1">
          <mxGeometry x="131" y="-278" width="105" height="69" as="geometry" />
        </mxCell>
        <mxCell id="zaIpkr8zUmfwl_h3QVsK-98" value="Aggiunta Spesa&lt;div&gt;Condivisa&lt;/div&gt;" style="ellipse;whiteSpace=wrap;html=1;" parent="1" vertex="1">
          <mxGeometry x="132" y="-184" width="104" height="69" as="geometry" />
        </mxCell>
        <mxCell id="XpmrYAvNGTaTp0vdqRnh-10" style="edgeStyle=none;curved=1;rounded=0;orthogonalLoop=1;jettySize=auto;html=1;fontSize=12;startSize=8;endSize=8;" edge="1" parent="1">
          <mxGeometry relative="1" as="geometry">
            <mxPoint x="364" y="-166" as="targetPoint" />
            <mxPoint x="228" y="-6" as="sourcePoint" />
            <Array as="points">
              <mxPoint x="313" y="-76" />
            </Array>
          </mxGeometry>
        </mxCell>
        <mxCell id="zaIpkr8zUmfwl_h3QVsK-99" value="Finalizzazione&amp;nbsp;&lt;div&gt;spese di gruppo&lt;/div&gt;" style="ellipse;whiteSpace=wrap;html=1;" parent="1" vertex="1">
          <mxGeometry x="113" y="-7" width="133.25" height="69" as="geometry" />
        </mxCell>
        <mxCell id="zaIpkr8zUmfwl_h3QVsK-100" value="" style="rounded=0;whiteSpace=wrap;html=1;movable=0;resizable=0;rotatable=0;deletable=0;editable=0;locked=1;connectable=0;" parent="1" vertex="1">
          <mxGeometry x="1.5" y="376" width="232" height="674.5" as="geometry" />
        </mxCell>
        <mxCell id="zaIpkr8zUmfwl_h3QVsK-101" value="Creazione" style="ellipse;whiteSpace=wrap;html=1;" parent="1" vertex="1">
          <mxGeometry x="51.75" y="445.5" width="120" height="80" as="geometry" />
        </mxCell>
        <mxCell id="zaIpkr8zUmfwl_h3QVsK-102" value="Movimento Automatico" style="ellipse;whiteSpace=wrap;html=1;" parent="1" vertex="1">
          <mxGeometry x="45.25" y="842.5" width="120" height="80" as="geometry" />
        </mxCell>
        <mxCell id="zaIpkr8zUmfwl_h3QVsK-103" value="Trasferimento di denaro" style="ellipse;whiteSpace=wrap;html=1;" parent="1" vertex="1">
          <mxGeometry x="51.75" y="650.5" width="120" height="80" as="geometry" />
        </mxCell>
        <mxCell id="zaIpkr8zUmfwl_h3QVsK-104" value="Creazione di un obbiettivo (data)" style="ellipse;whiteSpace=wrap;html=1;" parent="1" vertex="1">
          <mxGeometry x="51.75" y="752.5" width="120" height="80" as="geometry" />
        </mxCell>
        <mxCell id="zaIpkr8zUmfwl_h3QVsK-105" value="Eliminazione" style="ellipse;whiteSpace=wrap;html=1;" parent="1" vertex="1">
          <mxGeometry x="51.75" y="544.5" width="120" height="80" as="geometry" />
        </mxCell>
        <mxCell id="zaIpkr8zUmfwl_h3QVsK-106" value="Virtual Vault" style="text;html=1;align=center;verticalAlign=middle;whiteSpace=wrap;rounded=0;fontSize=16;" parent="1" vertex="1">
          <mxGeometry x="-5.75" y="402" width="222" height="30" as="geometry" />
        </mxCell>
        <mxCell id="zaIpkr8zUmfwl_h3QVsK-107" value="Visualizzazione Informazioni" style="ellipse;whiteSpace=wrap;html=1;" parent="1" vertex="1">
          <mxGeometry x="45.25" y="942" width="120" height="80" as="geometry" />
        </mxCell>
        <mxCell id="Ago6emkh6B27smQ5KSHw-83" style="edgeStyle=none;curved=1;rounded=0;orthogonalLoop=1;jettySize=auto;html=1;fontSize=12;startSize=8;endSize=8;" parent="1" edge="1">
          <mxGeometry relative="1" as="geometry">
            <mxPoint x="-51" y="620" as="sourcePoint" />
            <mxPoint x="40" y="491" as="targetPoint" />
            <Array as="points">
              <mxPoint x="-10" y="541" />
            </Array>
          </mxGeometry>
        </mxCell>
        <mxCell id="Ago6emkh6B27smQ5KSHw-84" style="edgeStyle=none;curved=1;rounded=0;orthogonalLoop=1;jettySize=auto;html=1;fontSize=12;startSize=8;endSize=8;" parent="1" edge="1">
          <mxGeometry relative="1" as="geometry">
            <mxPoint x="47.28571428571422" y="589.7142857142858" as="targetPoint" />
            <mxPoint x="-38" y="641" as="sourcePoint" />
            <Array as="points">
              <mxPoint y="604" />
            </Array>
          </mxGeometry>
        </mxCell>
        <mxCell id="Ago6emkh6B27smQ5KSHw-85" style="edgeStyle=none;curved=1;rounded=0;orthogonalLoop=1;jettySize=auto;html=1;fontSize=12;startSize=8;endSize=8;" parent="1" edge="1">
          <mxGeometry relative="1" as="geometry">
            <mxPoint x="48.71428571428578" y="688.2857142857147" as="targetPoint" />
            <mxPoint x="-36" y="670" as="sourcePoint" />
            <Array as="points">
              <mxPoint y="681" />
            </Array>
          </mxGeometry>
        </mxCell>
        <mxCell id="Ago6emkh6B27smQ5KSHw-86" style="edgeStyle=none;curved=1;rounded=0;orthogonalLoop=1;jettySize=auto;html=1;fontSize=12;startSize=8;endSize=8;" parent="1" edge="1">
          <mxGeometry relative="1" as="geometry">
            <mxPoint x="40.14285714285734" y="782.5714285714289" as="targetPoint" />
            <mxPoint x="-37" y="724" as="sourcePoint" />
            <Array as="points">
              <mxPoint x="-3" y="754" />
            </Array>
          </mxGeometry>
        </mxCell>
        <mxCell id="Ago6emkh6B27smQ5KSHw-87" style="edgeStyle=none;curved=1;rounded=0;orthogonalLoop=1;jettySize=auto;html=1;fontSize=12;startSize=8;endSize=8;" parent="1" edge="1">
          <mxGeometry relative="1" as="geometry">
            <mxPoint x="41.571428571428896" y="862.5714285714289" as="targetPoint" />
            <mxPoint x="-56" y="731" as="sourcePoint" />
            <Array as="points">
              <mxPoint x="-13" y="808" />
            </Array>
          </mxGeometry>
        </mxCell>
        <mxCell id="Ago6emkh6B27smQ5KSHw-88" style="edgeStyle=none;curved=1;rounded=0;orthogonalLoop=1;jettySize=auto;html=1;fontSize=12;startSize=8;endSize=8;" parent="1" edge="1">
          <mxGeometry relative="1" as="geometry">
            <mxPoint x="38.71428571428578" y="956.8571428571431" as="targetPoint" />
            <mxPoint x="-61" y="744" as="sourcePoint" />
            <Array as="points">
              <mxPoint x="-24" y="851" />
            </Array>
          </mxGeometry>
        </mxCell>
        <mxCell id="zaIpkr8zUmfwl_h3QVsK-111" value="Utente 1" style="shape=umlActor;verticalLabelPosition=bottom;verticalAlign=top;html=1;outlineConnect=0;" parent="1" vertex="1">
          <mxGeometry x="-71" y="639.5" width="30" height="60" as="geometry" />
        </mxCell>
        <mxCell id="zaIpkr8zUmfwl_h3QVsK-113" value="" style="rounded=0;whiteSpace=wrap;html=1;movable=0;resizable=0;rotatable=0;deletable=0;editable=0;locked=1;connectable=0;" parent="1" vertex="1">
          <mxGeometry x="-528" y="285" width="372" height="674.5" as="geometry" />
        </mxCell>
        <mxCell id="zaIpkr8zUmfwl_h3QVsK-114" value="Creazione" style="ellipse;whiteSpace=wrap;html=1;" parent="1" vertex="1">
          <mxGeometry x="-477.75" y="354.5" width="120" height="80" as="geometry" />
        </mxCell>
        <mxCell id="zaIpkr8zUmfwl_h3QVsK-115" value="Modifica Movimento" style="ellipse;whiteSpace=wrap;html=1;" parent="1" vertex="1">
          <mxGeometry x="-484.25" y="751.5" width="120" height="80" as="geometry" />
        </mxCell>
        <mxCell id="zaIpkr8zUmfwl_h3QVsK-116" value="Aggiunta movimento" style="ellipse;whiteSpace=wrap;html=1;" parent="1" vertex="1">
          <mxGeometry x="-477.75" y="559.5" width="120" height="80" as="geometry" />
        </mxCell>
        <mxCell id="zaIpkr8zUmfwl_h3QVsK-117" value="Rimozione movimento" style="ellipse;whiteSpace=wrap;html=1;" parent="1" vertex="1">
          <mxGeometry x="-477.75" y="661.5" width="120" height="80" as="geometry" />
        </mxCell>
        <mxCell id="zaIpkr8zUmfwl_h3QVsK-118" value="Eliminazione" style="ellipse;whiteSpace=wrap;html=1;" parent="1" vertex="1">
          <mxGeometry x="-477.75" y="453.5" width="120" height="80" as="geometry" />
        </mxCell>
        <mxCell id="zaIpkr8zUmfwl_h3QVsK-119" value="Cashbook" style="text;html=1;align=center;verticalAlign=middle;whiteSpace=wrap;rounded=0;fontSize=16;" parent="1" vertex="1">
          <mxGeometry x="-535.25" y="311" width="222" height="30" as="geometry" />
        </mxCell>
        <mxCell id="zaIpkr8zUmfwl_h3QVsK-120" value="Sommario" style="ellipse;whiteSpace=wrap;html=1;" parent="1" vertex="1">
          <mxGeometry x="-487.25" y="859.5" width="120" height="80" as="geometry" />
        </mxCell>
        <mxCell id="XpmrYAvNGTaTp0vdqRnh-12" style="edgeStyle=none;curved=1;rounded=0;orthogonalLoop=1;jettySize=auto;html=1;fontSize=12;startSize=8;endSize=8;" edge="1" parent="1">
          <mxGeometry relative="1" as="geometry">
            <mxPoint x="-482.1034482758621" y="395.1379310344828" as="targetPoint" />
            <mxPoint x="-604" y="533" as="sourcePoint" />
            <Array as="points">
              <mxPoint x="-552" y="442" />
            </Array>
          </mxGeometry>
        </mxCell>
        <mxCell id="XpmrYAvNGTaTp0vdqRnh-13" style="edgeStyle=none;curved=1;rounded=0;orthogonalLoop=1;jettySize=auto;html=1;fontSize=12;startSize=8;endSize=8;" edge="1" parent="1">
          <mxGeometry relative="1" as="geometry">
            <mxPoint x="-484.8620689655172" y="494.44827586206907" as="targetPoint" />
            <mxPoint x="-590" y="545" as="sourcePoint" />
          </mxGeometry>
        </mxCell>
        <mxCell id="XpmrYAvNGTaTp0vdqRnh-14" style="edgeStyle=none;curved=1;rounded=0;orthogonalLoop=1;jettySize=auto;html=1;fontSize=12;startSize=8;endSize=8;" edge="1" parent="1">
          <mxGeometry relative="1" as="geometry">
            <mxPoint x="-488.31034482758605" y="595.1379310344828" as="targetPoint" />
            <mxPoint x="-587" y="568" as="sourcePoint" />
          </mxGeometry>
        </mxCell>
        <mxCell id="XpmrYAvNGTaTp0vdqRnh-15" style="edgeStyle=none;curved=1;rounded=0;orthogonalLoop=1;jettySize=auto;html=1;fontSize=12;startSize=8;endSize=8;" edge="1" parent="1">
          <mxGeometry relative="1" as="geometry">
            <mxPoint x="-489" y="695.1379310344828" as="targetPoint" />
            <mxPoint x="-592" y="630" as="sourcePoint" />
            <Array as="points">
              <mxPoint x="-539" y="672" />
            </Array>
          </mxGeometry>
        </mxCell>
        <mxCell id="XpmrYAvNGTaTp0vdqRnh-16" style="edgeStyle=none;curved=1;rounded=0;orthogonalLoop=1;jettySize=auto;html=1;fontSize=12;startSize=8;endSize=8;" edge="1" parent="1">
          <mxGeometry relative="1" as="geometry">
            <mxPoint x="-487.6206896551723" y="778.5862068965516" as="targetPoint" />
            <mxPoint x="-612" y="629" as="sourcePoint" />
            <Array as="points">
              <mxPoint x="-555" y="707" />
            </Array>
          </mxGeometry>
        </mxCell>
        <mxCell id="XpmrYAvNGTaTp0vdqRnh-17" style="edgeStyle=none;curved=1;rounded=0;orthogonalLoop=1;jettySize=auto;html=1;fontSize=12;startSize=8;endSize=8;" edge="1" parent="1">
          <mxGeometry relative="1" as="geometry">
            <mxPoint x="-487.6206896551723" y="878.5862068965516" as="targetPoint" />
            <mxPoint x="-622" y="631" as="sourcePoint" />
            <Array as="points">
              <mxPoint x="-569" y="766" />
            </Array>
          </mxGeometry>
        </mxCell>
        <mxCell id="zaIpkr8zUmfwl_h3QVsK-122" value="Utente 1" style="shape=umlActor;verticalLabelPosition=bottom;verticalAlign=top;html=1;outlineConnect=0;" parent="1" vertex="1">
          <mxGeometry x="-627" y="546" width="30" height="60" as="geometry" />
        </mxCell>
        <mxCell id="zaIpkr8zUmfwl_h3QVsK-123" value="Manuale" style="ellipse;whiteSpace=wrap;html=1;" parent="1" vertex="1">
          <mxGeometry x="-292" y="487" width="120" height="80" as="geometry" />
        </mxCell>
        <mxCell id="zaIpkr8zUmfwl_h3QVsK-124" value="Automatico" style="ellipse;whiteSpace=wrap;html=1;" parent="1" vertex="1">
          <mxGeometry x="-284" y="673.25" width="120" height="80" as="geometry" />
        </mxCell>
        <mxCell id="zaIpkr8zUmfwl_h3QVsK-127" value="&lt;font style=&quot;font-size: 29px;&quot;&gt;LaVault&lt;/font&gt;" style="text;html=1;align=center;verticalAlign=middle;whiteSpace=wrap;rounded=0;" parent="1" vertex="1">
          <mxGeometry x="-444.5" y="-421" width="222" height="76" as="geometry" />
        </mxCell>
        <mxCell id="Ago6emkh6B27smQ5KSHw-89" value="Extends" style="text;html=1;align=center;verticalAlign=middle;whiteSpace=wrap;rounded=0;fontSize=16;" parent="1" vertex="1">
          <mxGeometry x="-341" y="643.25" width="60" height="30" as="geometry" />
        </mxCell>
        <mxCell id="Ago6emkh6B27smQ5KSHw-92" value="Extends" style="text;html=1;align=center;verticalAlign=middle;whiteSpace=wrap;rounded=0;fontSize=16;" parent="1" vertex="1">
          <mxGeometry x="-353" y="549.5" width="60" height="30" as="geometry" />
        </mxCell>
        <mxCell id="Ago6emkh6B27smQ5KSHw-93" value="" style="endArrow=none;dashed=1;html=1;rounded=0;fontSize=12;startSize=8;endSize=8;curved=1;exitX=0;exitY=0.75;exitDx=0;exitDy=0;entryX=0.93;entryY=0.225;entryDx=0;entryDy=0;entryPerimeter=0;" parent="1" source="Ago6emkh6B27smQ5KSHw-92" target="zaIpkr8zUmfwl_h3QVsK-116" edge="1">
          <mxGeometry width="50" height="50" relative="1" as="geometry">
            <mxPoint x="-326" y="677" as="sourcePoint" />
            <mxPoint x="-359" y="582" as="targetPoint" />
          </mxGeometry>
        </mxCell>
        <mxCell id="Ago6emkh6B27smQ5KSHw-95" value="" style="endArrow=none;dashed=1;html=1;rounded=0;fontSize=12;startSize=8;endSize=8;curved=1;exitX=0.5;exitY=0;exitDx=0;exitDy=0;entryX=0;entryY=0.5;entryDx=0;entryDy=0;" parent="1" source="Ago6emkh6B27smQ5KSHw-92" target="zaIpkr8zUmfwl_h3QVsK-123" edge="1">
          <mxGeometry width="50" height="50" relative="1" as="geometry">
            <mxPoint x="-326" y="539" as="sourcePoint" />
            <mxPoint x="-276" y="489" as="targetPoint" />
          </mxGeometry>
        </mxCell>
        <mxCell id="Ago6emkh6B27smQ5KSHw-96" style="edgeStyle=none;curved=1;rounded=0;orthogonalLoop=1;jettySize=auto;html=1;entryX=0.608;entryY=-0.009;entryDx=0;entryDy=0;entryPerimeter=0;fontSize=12;startSize=8;endSize=8;" parent="1" source="Ago6emkh6B27smQ5KSHw-92" target="Ago6emkh6B27smQ5KSHw-92" edge="1">
          <mxGeometry relative="1" as="geometry" />
        </mxCell>
        <mxCell id="Ago6emkh6B27smQ5KSHw-97" value="" style="endArrow=none;dashed=1;html=1;rounded=0;fontSize=12;startSize=8;endSize=8;curved=1;exitX=0.964;exitY=0.708;exitDx=0;exitDy=0;entryX=0;entryY=0;entryDx=0;entryDy=0;exitPerimeter=0;" parent="1" source="zaIpkr8zUmfwl_h3QVsK-116" target="Ago6emkh6B27smQ5KSHw-89" edge="1">
          <mxGeometry width="50" height="50" relative="1" as="geometry">
            <mxPoint x="-313" y="560" as="sourcePoint" />
            <mxPoint x="-282" y="537" as="targetPoint" />
          </mxGeometry>
        </mxCell>
        <mxCell id="Ago6emkh6B27smQ5KSHw-99" value="" style="endArrow=none;dashed=1;html=1;rounded=0;fontSize=12;startSize=8;endSize=8;curved=1;exitX=1;exitY=0.75;exitDx=0;exitDy=0;" parent="1" source="Ago6emkh6B27smQ5KSHw-89" edge="1">
          <mxGeometry width="50" height="50" relative="1" as="geometry">
            <mxPoint x="-352" y="626" as="sourcePoint" />
            <mxPoint x="-263" y="682" as="targetPoint" />
          </mxGeometry>
        </mxCell>
        <mxCell id="XpmrYAvNGTaTp0vdqRnh-8" style="edgeStyle=none;curved=1;rounded=0;orthogonalLoop=1;jettySize=auto;html=1;fontSize=12;startSize=8;endSize=8;" edge="1" parent="1">
          <mxGeometry relative="1" as="geometry">
            <mxPoint x="243.41379310344837" y="-250.37931034482745" as="targetPoint" />
            <mxPoint x="348" y="-222" as="sourcePoint" />
          </mxGeometry>
        </mxCell>
        <mxCell id="XpmrYAvNGTaTp0vdqRnh-7" value="Membri Gruppo" style="shape=umlActor;verticalLabelPosition=bottom;verticalAlign=top;html=1;outlineConnect=0;direction=east;" vertex="1" parent="1">
          <mxGeometry x="364" y="-263" width="30" height="60" as="geometry" />
        </mxCell>
      </root>
    </mxGraphModel>
  </diagram>
</mxfile>
